<svg xmlns="http://www.w3.org/2000/svg"
    xmlns:xlink="http://www.w3.org/1999/xlink" id="Layer_1" x="0px" y="0px" viewBox="0 0 435 490" xml:space="preserve">
    <style type="text/css">	.st0{fill:#FFFFFF;}	.st1{fill:#E57310;}</style>
    <g>
        <g>
            <path class="st1" d="M216.5,30.1c1.2,0,2.3,0.3,3.4,0.9l179.5,103.6c2.1,1.2,3.4,3.4,3.4,5.8v207.2c0,2.4-1.3,4.6-3.4,5.8    L219.9,457.1c-1,0.6-2.2,0.9-3.4,0.9c-1.2,0-2.3-0.3-3.4-0.9L33.7,353.5c-2.1-1.2-3.4-3.4-3.4-5.8V140.4c0-2.4,1.3-4.6,3.4-5.8    L213.1,31C214.2,30.4,215.3,30.1,216.5,30.1 M216.5-0.2c-6.4,0-12.8,1.7-18.5,5L18.5,108.4C7.1,115,0,127.2,0,140.4v207.2    c0,13.2,7.1,25.4,18.5,32.1L198,483.3c5.7,3.3,12.1,5,18.5,5c6.4,0,12.8-1.7,18.5-5l179.5-103.6c11.5-6.6,18.5-18.8,18.5-32.1    V140.4c0-13.2-7.1-25.4-18.5-32.1L235,4.7C229.3,1.4,222.9-0.2,216.5-0.2L216.5-0.2z"></path>
            <g>
                <path class="st1" d="M170.7,137.9h-23.4c-1.8,0-3.3,1.1-3.9,2.8L67.9,347.4c-0.5,1.4,0.5,2.8,2,2.8h23.4c1.8,0,3.3-1.1,3.9-2.8     l75.4-206.8C173.2,139.3,172.2,137.9,170.7,137.9z"></path>
                <path class="st1" d="M201.1,218.1c-0.7-1.8-3.3-1.8-3.9,0L185,251.5c-0.3,0.9-0.3,1.9,0,2.9l34,93.1c0.6,1.7,2.2,2.8,3.9,2.8     h23.4c1.5,0,2.5-1.4,2-2.8L201.1,218.1z"></path>
                <path class="st1" d="M211.7,137.9h-23.4c-1.8,0-3.3,1.1-3.9,2.8L109,347.4c-0.5,1.4,0.5,2.8,2,2.8h23.4c1.8,0,3.3-1.1,3.9-2.8     l75.4-206.8C214.2,139.3,213.2,137.9,211.7,137.9z"></path>
                <path class="st1" d="M221.6,161.8c-0.7-1.8-3.3-1.8-3.9,0l-12.2,33.4c-0.3,0.9-0.3,1.9,0,2.9l54.5,149.3c0.6,1.7,2.2,2.8,3.9,2.8     h23.4c1.5,0,2.5-1.4,2-2.8L221.6,161.8z"></path>
                <path class="st1" d="M363.1,137.9h-23.4c-1.8,0-3.3,1.1-3.9,2.8L281.2,290c-0.3,0.9-0.3,1.9,0,2.9l12.2,33.4     c0.7,1.8,3.3,1.8,3.9,0L365,140.7C365.5,139.3,364.5,137.9,363.1,137.9z"></path>
                <path class="st1" d="M272.9,270c0.7,1.8,3.3,1.8,3.9,0L324,140.7c0.5-1.4-0.5-2.8-2-2.8h-23.4c-1.8,0-3.3,1.1-3.9,2.8l-34,93.1     c-0.3,0.9-0.3,1.9,0,2.9L272.9,270z"></path>
            </g>
        </g>
    </g>
</svg>