<?xml version="1.0" standalone="no"?>
<!DOCTYPE svg PUBLIC "-//W3C//DTD SVG 20010904//EN"
 "http://www.w3.org/TR/2001/REC-SVG-20010904/DTD/svg10.dtd">
<svg version="1.0" xmlns="http://www.w3.org/2000/svg"
 width="256.000000pt" height="256.000000pt" viewBox="0 0 256.000000 256.000000"
 preserveAspectRatio="xMidYMid meet">

<g transform="translate(0.000000,256.000000) scale(0.100000,-0.100000)"
fill="#000000" stroke="none">
<path d="M1130 2550 c-312 -44 -558 -167 -768 -384 -173 -180 -283 -388 -338
-641 -26 -123 -24 -369 5 -503 56 -262 174 -475 365 -660 180 -173 388 -283
641 -338 123 -26 369 -24 503 5 262 56 475 174 660 365 173 180 283 388 338
641 26 123 24 369 -5 503 -108 508 -497 893 -1005 997 -96 19 -307 27 -396 15z
m290 -351 c179 -29 354 -116 488 -243 128 -121 218 -272 263 -441 29 -106 32
-335 6 -439 -90 -359 -370 -629 -726 -701 -123 -25 -315 -17 -435 19 -180 54
-347 164 -464 306 -94 115 -179 311 -198 458 l-7 52 612 0 611 0 0 75 0 75
-610 0 c-596 0 -610 0 -610 19 0 11 7 50 15 88 66 312 272 559 565 679 139 57
337 78 490 53z"/>
</g>
</svg>
